<svg id="Сгруппировать_90" data-name="Сгруппировать 90" xmlns="http://www.w3.org/2000/svg" xmlns:xlink="http://www.w3.org/1999/xlink" width="30.067" height="25.976" viewBox="0 0 30.067 25.976">
  <defs>
    <clipPath id="clip-path">
      <rect id="Прямоугольник_587" data-name="Прямоугольник 587" width="30.067" height="25.976" fill="none"/>
    </clipPath>
  </defs>
  <g id="Сгруппировать_89" data-name="Сгруппировать 89" clip-path="url(#clip-path)">
    <path id="Контур_257" data-name="Контур 257" d="M29.772.041a37.551,37.551,0,0,0-6.042,4.13A64.536,64.536,0,0,0,10.292,18.356c-.146.211-.278.4-.391.573L5.994,12.391A4.119,4.119,0,0,0,.346,10.969a1.3,1.3,0,0,0-.187,1.507L6.217,22.614l1.274,2.135q.029.048.059.1a2.566,2.566,0,0,0,4.245.015c.216-.311,6.539-10.192,8.14-12.385C23.454,7.658,29.721.566,29.924.421a1.319,1.319,0,0,0,.108-.133.181.181,0,0,0-.26-.247" transform="translate(0 0)" fill="#0d9008"/>
  </g>
</svg>
